<svg xmlns="http://www.w3.org/2000/svg" viewBox="0 0 64 64" fill="none" stroke="url(#g)" stroke-width="2.8" stroke-linecap="round" stroke-linejoin="round"><defs><linearGradient id="g" x1="10" y1="8" x2="56" y2="58" gradientUnits="userSpaceOnUse"><stop stop-color="hsl(251 78% 75%)"/><stop offset=".55" stop-color="hsl(293 92% 60%)"/><stop offset="1" stop-color="hsl(76 85% 67%)"/></linearGradient><radialGradient id="glow"><stop stop-color="hsl(293 92% 60%)" stop-opacity=".2"/><stop offset="1" stop-color="hsl(293 92% 60%)" stop-opacity="0"/></radialGradient></defs><circle cx="32" cy="32" r="27" fill="url(#glow)" stroke="none"/><g transform="rotate(3 32 32)"><path d="M17 42V27a4 4 0 0 1 8 0v-9a4 4 0 0 1 8 0v8-11a4 4 0 0 1 8 0v12-7a4 4 0 0 1 8 0v17c0 11-7 17-18 17h-5c-8 0-13-5-13-12Z"/><path d="M25 28h16M15 15l-5-5m45 5 5-5"/></g><g><path d="m23 31 2 2-2 2-2-2z" stroke="hsl(293 92% 60%)" stroke-width="1.3"/></g></svg>